<svg xmlns="http://www.w3.org/2000/svg" width="900" height="520" viewBox="0 0 900 520" role="img" aria-labelledby="title desc">
  <title id="title">Mouse window resizing in terminal Neovim</title>
  <desc id="desc">A terminal Neovim layout with draggable split borders and a mouse pointer resizing panes.</desc>
  <rect width="900" height="520" rx="18" fill="#0f141b"/>
  <rect x="24" y="24" width="852" height="472" rx="10" fill="#151b23" stroke="#303946" stroke-width="2"/>
  <rect x="24" y="24" width="852" height="38" rx="10" fill="#222a35"/>
  <circle cx="48" cy="43" r="6" fill="#ff5f57"/>
  <circle cx="68" cy="43" r="6" fill="#ffbd2e"/>
  <circle cx="88" cy="43" r="6" fill="#28c840"/>
  <text x="118" y="49" fill="#c9d1d9" font-family="Menlo, Monaco, monospace" font-size="16">nvim ~/dev/cmux_setting</text>

  <rect x="46" y="84" width="244" height="382" rx="6" fill="#10161d" stroke="#39414f"/>
  <rect x="310" y="84" width="250" height="382" rx="6" fill="#111820" stroke="#39414f"/>
  <rect x="580" y="84" width="274" height="382" rx="6" fill="#111820" stroke="#39414f"/>

  <rect x="290" y="84" width="20" height="382" fill="#253041"/>
  <rect x="560" y="84" width="20" height="382" fill="#253041"/>
  <rect x="294" y="218" width="12" height="112" rx="6" fill="#58a6ff"/>
  <rect x="564" y="172" width="12" height="112" rx="6" fill="#58a6ff"/>

  <text x="66" y="122" fill="#7ee787" font-family="Menlo, Monaco, monospace" font-size="18">Neo-tree</text>
  <text x="66" y="158" fill="#c9d1d9" font-family="Menlo, Monaco, monospace" font-size="16">▾ cmux_setting</text>
  <text x="84" y="188" fill="#c9d1d9" font-family="Menlo, Monaco, monospace" font-size="16">README.md</text>
  <text x="84" y="218" fill="#c9d1d9" font-family="Menlo, Monaco, monospace" font-size="16">init.lua</text>
  <text x="84" y="248" fill="#c9d1d9" font-family="Menlo, Monaco, monospace" font-size="16">screenshots/</text>

  <text x="332" y="122" fill="#c9d1d9" font-family="Menlo, Monaco, monospace" font-size="18">README.md</text>
  <rect x="332" y="148" width="190" height="10" rx="5" fill="#303946"/>
  <rect x="332" y="174" width="160" height="10" rx="5" fill="#303946"/>
  <rect x="332" y="214" width="205" height="10" rx="5" fill="#303946"/>
  <rect x="332" y="240" width="145" height="10" rx="5" fill="#303946"/>

  <text x="602" y="122" fill="#c9d1d9" font-family="Menlo, Monaco, monospace" font-size="18">Git status</text>
  <rect x="602" y="154" width="170" height="34" rx="6" fill="#1f6feb"/>
  <text x="620" y="176" fill="#ffffff" font-family="Menlo, Monaco, monospace" font-size="15">main • clean</text>
  <rect x="602" y="220" width="218" height="10" rx="5" fill="#303946"/>
  <rect x="602" y="246" width="184" height="10" rx="5" fill="#303946"/>

  <path d="M680 342 L740 402 L706 410 L726 458 L702 468 L682 420 L656 446 Z" fill="#f0f6fc" stroke="#0d1117" stroke-width="5"/>
  <line x1="606" y1="326" x2="792" y2="326" stroke="#f0883e" stroke-width="6" stroke-linecap="round"/>
  <path d="M606 326 l24 -18 v36 z" fill="#f0883e"/>
  <path d="M792 326 l-24 -18 v36 z" fill="#f0883e"/>
  <text x="604" y="384" fill="#f0f6fc" font-family="Menlo, Monaco, monospace" font-size="18">Drag split borders</text>
  <text x="604" y="414" fill="#8b949e" font-family="Menlo, Monaco, monospace" font-size="15">mouse=a</text>
</svg>
